<svg width="188" height="40" viewBox="0 0 188 40" fill="none" xmlns="http://www.w3.org/2000/svg">
<path d="M60.4436 17.6943L54.4475 4.19989H51.665V21.5611H54.5455V10.6924L59.4704 21.5611H61.3646L66.3156 10.6401V21.5611H69.1961V4.19989H66.4397L60.4436 17.6943Z" fill="white"/>
<path d="M82.377 9.66692C81.4299 9.14439 80.3195 8.87659 79.0393 8.87659C77.7591 8.87659 76.6487 9.13785 75.7147 9.66692C74.7807 10.1895 74.0557 10.9341 73.5331 11.8942C73.0171 12.8544 72.7559 13.9974 72.7559 15.3299C72.7559 16.6623 73.0106 17.8119 73.5331 18.7786C74.0491 19.7453 74.7741 20.4964 75.7147 21.019C76.6487 21.5415 77.7591 21.8093 79.0393 21.8093C80.3195 21.8093 81.4299 21.548 82.377 21.019C83.3241 20.4964 84.0491 19.7453 84.5717 18.7786C85.0877 17.8119 85.3489 16.6623 85.3489 15.3299C85.3489 13.9974 85.0877 12.8544 84.5717 11.8942C84.0557 10.9341 83.3241 10.1895 82.377 9.66692ZM81.3581 18.4194C80.7833 19.0987 80.0126 19.4383 79.0459 19.4383C78.0792 19.4383 77.3084 19.0987 76.7337 18.4194C76.1589 17.7401 75.8715 16.7081 75.8715 15.3299C75.8715 13.9517 76.1589 12.9262 76.7337 12.2535C77.3084 11.5807 78.0792 11.2476 79.0459 11.2476C80.0126 11.2476 80.7833 11.5872 81.3581 12.2535C81.9329 12.9262 82.2203 13.9517 82.2203 15.3299C82.2203 16.7081 81.9329 17.7401 81.3581 18.4194Z" fill="white"/>
<path d="M98.6214 9.66689C97.7984 9.14436 96.8382 8.87656 95.7409 8.87656C94.7089 8.87656 93.7945 9.12476 93.0107 9.6277C92.4424 9.98694 92.0113 10.4442 91.7043 10.9928V3.43567H88.6279V21.5611H91.6782V19.595C91.9721 20.1698 92.4032 20.6532 92.9846 21.032C93.7749 21.548 94.6893 21.8093 95.7409 21.8093C96.7925 21.8093 97.7788 21.548 98.6083 21.032C99.4379 20.516 100.084 19.7779 100.542 18.8178C100.999 17.8576 101.228 16.7015 101.228 15.356C101.228 14.0105 100.999 12.8543 100.542 11.8942C100.084 10.934 99.4444 10.1894 98.6214 9.66689ZM97.2301 18.4324C96.6292 19.1052 95.8454 19.4383 94.8787 19.4383C93.9121 19.4383 93.1282 19.0986 92.5404 18.4193C91.946 17.74 91.6521 16.708 91.6521 15.3299C91.6521 13.9517 91.946 12.9262 92.5404 12.2534C93.1282 11.5807 93.9121 11.2476 94.8787 11.2476C95.8454 11.2476 96.6292 11.5872 97.2301 12.2665C97.8311 12.9458 98.1315 13.9778 98.1315 15.356C98.1315 16.7342 97.8311 17.7596 97.2301 18.4324Z" fill="white"/>
<path d="M107.582 9.12476H104.506V21.5611H107.582V9.12476Z" fill="white"/>
<path d="M107.753 3.78186H104.33V6.78643H107.753V3.78186Z" fill="white"/>
<path d="M114.624 3.43567H111.548V21.5611H114.624V3.43567Z" fill="white"/>
<path d="M121.665 9.12476H118.589V21.5611H121.665V9.12476Z" fill="white"/>
<path d="M121.835 3.78186H118.412V6.78643H121.835V3.78186Z" fill="white"/>
<path d="M135.701 11.143V9.12476H125.14V11.4435H132.266L125.14 19.5428V21.5611H135.969V19.2489H128.562L135.701 11.143Z" fill="white"/>
<path d="M148.02 11.1953C147.726 10.5748 147.269 10.0588 146.649 9.65386C145.852 9.13785 144.931 8.87659 143.879 8.87659C142.828 8.87659 141.841 9.13785 141.025 9.65386C140.202 10.1699 139.562 10.9079 139.104 11.8681C138.647 12.8283 138.412 13.9844 138.412 15.3299C138.412 16.6754 138.641 17.8315 139.104 18.8047C139.562 19.7714 140.202 20.516 141.025 21.032C141.848 21.548 142.795 21.8093 143.879 21.8093C144.898 21.8093 145.806 21.5546 146.609 21.0451C147.191 20.6793 147.622 20.2221 147.922 19.6735L147.942 21.5611H150.992V12.2273C150.992 11.7179 151.012 11.2019 151.051 10.6793C151.09 10.1568 151.136 9.63426 151.188 9.12479H148.236L148.02 11.1953ZM147.08 18.4194C146.492 19.0987 145.708 19.4383 144.741 19.4383C143.775 19.4383 142.971 19.0987 142.39 18.4194C141.809 17.7401 141.515 16.7081 141.515 15.3299C141.515 13.9517 141.809 12.9262 142.403 12.2535C142.997 11.5807 143.775 11.2476 144.741 11.2476C145.708 11.2476 146.492 11.5872 147.08 12.2535C147.674 12.9262 147.968 13.9517 147.968 15.3299C147.968 16.7081 147.674 17.7401 147.08 18.4194Z" fill="white"/>
<path d="M164.042 18.1842C163.585 18.5957 163.076 18.8962 162.527 19.0987C161.978 19.2946 161.449 19.3926 160.94 19.3926C159.843 19.3926 158.98 19.0399 158.366 18.3345C157.753 17.629 157.446 16.6166 157.446 15.3038C157.446 13.9909 157.753 12.9915 158.366 12.2992C158.98 11.6068 159.843 11.2672 160.94 11.2672C161.462 11.2672 162.005 11.3717 162.553 11.5742C163.102 11.7767 163.598 12.0836 164.042 12.4951L164.977 10.3527C164.487 9.87593 163.847 9.51016 163.069 9.25542C162.292 9.00069 161.489 8.87659 160.666 8.87659C159.385 8.87659 158.269 9.13132 157.315 9.64079C156.361 10.1503 155.617 10.8818 155.088 11.8289C154.552 12.7825 154.284 13.9321 154.284 15.2776C154.284 16.6232 154.545 17.7858 155.075 18.759C155.597 19.7388 156.342 20.4899 157.302 21.0124C158.262 21.535 159.385 21.8028 160.666 21.8028C161.469 21.8028 162.259 21.6721 163.043 21.4109C163.82 21.1496 164.467 20.7773 164.977 20.3005L164.042 18.1842Z" fill="white"/>
<path d="M168.053 22.1489C168.053 23.0046 167.884 23.612 167.55 23.9713C167.217 24.3305 166.747 24.5134 166.159 24.5134C165.931 24.5134 165.689 24.4873 165.447 24.4415C165.199 24.3958 164.97 24.337 164.755 24.2717V26.708C165.036 26.8256 165.356 26.904 165.728 26.9562C166.1 27.002 166.44 27.0281 166.747 27.0281C168.256 27.0281 169.366 26.6297 170.072 25.8328C170.777 25.0359 171.13 23.8668 171.13 22.3253V9.12476H168.053V22.1489Z" fill="white"/>
<path d="M171.28 3.78186H167.857V6.78643H171.28V3.78186Z" fill="white"/>
<path d="M184.18 9.12479L183.965 11.1953C183.671 10.5748 183.213 10.0588 182.593 9.65386C181.796 9.13785 180.875 8.87659 179.823 8.87659C178.772 8.87659 177.786 9.13785 176.969 9.65386C176.146 10.1699 175.506 10.9079 175.049 11.8681C174.592 12.8283 174.356 13.9844 174.356 15.3299C174.356 16.6754 174.585 17.8315 175.049 18.8047C175.506 19.7714 176.146 20.516 176.969 21.032C177.792 21.548 178.739 21.8093 179.823 21.8093C180.842 21.8093 181.75 21.5546 182.554 21.0451C183.135 20.6793 183.566 20.2221 183.867 19.6735L183.886 21.5611H186.936V12.2273C186.936 11.7179 186.956 11.2019 186.995 10.6793C187.034 10.1568 187.08 9.63426 187.132 9.12479H184.18ZM183.024 18.4194C182.436 19.0987 181.652 19.4383 180.686 19.4383C179.719 19.4383 178.916 19.0987 178.334 18.4194C177.753 17.7401 177.459 16.7081 177.459 15.3299C177.459 13.9517 177.753 12.9262 178.347 12.2535C178.942 11.5807 179.719 11.2476 180.686 11.2476C181.652 11.2476 182.436 11.5872 183.024 12.2535C183.618 12.9262 183.912 13.9517 183.912 15.3299C183.912 16.7081 183.618 17.7401 183.024 18.4194Z" fill="white"/>
<path d="M51.7106 36.4076V26.2443H56.3938C57.5108 26.2443 58.3664 26.4794 58.9739 26.9497C59.5813 27.42 59.8818 28.0666 59.8818 28.8831C59.8818 29.4905 59.6989 30 59.3396 30.4245C58.9804 30.8491 58.484 31.13 57.8635 31.2737V31.045C58.595 31.1691 59.1567 31.4435 59.5552 31.8746C59.9536 32.2991 60.1561 32.8543 60.1561 33.5401C60.1561 34.4415 59.836 35.1469 59.1959 35.6499C58.5558 36.1528 57.6741 36.4076 56.5506 36.4076H51.7041H51.7106ZM53.8596 30.4245H55.9954C56.5833 30.4245 57.0144 30.32 57.2952 30.1045C57.5761 29.8955 57.7132 29.5754 57.7132 29.1509C57.7132 28.7263 57.5761 28.4258 57.2952 28.2168C57.0144 28.0078 56.5833 27.8968 55.9954 27.8968H53.8596V30.418V30.4245ZM53.8596 34.7354H56.2828C56.838 34.7354 57.2691 34.6309 57.563 34.4154C57.8635 34.2064 58.0072 33.8667 58.0072 33.403C58.0072 32.9392 57.8569 32.5931 57.563 32.384C57.2691 32.175 56.838 32.0705 56.2828 32.0705H53.8596V34.7224V34.7354Z" fill="white"/>
<path d="M63.1865 36.4076V26.2443H65.4334V36.4076H63.1865Z" fill="white"/>
<path d="M68.5625 36.4076V34.7485L73.9838 27.4265V28.0927H68.5625V26.2508H76.1327V27.8968L70.6984 35.2188V34.5722H76.3352V36.4141H68.5625V36.4076Z" fill="white"/>
<path d="M79.2477 36.4076V26.2443H80.9199L86.4391 33.2658H86.0472V26.2443H88.1374V36.4076H86.4653L80.959 29.386H81.3313V36.4076H79.2412H79.2477Z" fill="white"/>
<path d="M91.6455 36.4076V26.2443H98.7063V27.9882H93.7879V30.3658H98.3601V32.1228H93.7879V34.6571H98.7063V36.401H91.6455V36.4076Z" fill="white"/>
<path d="M105.251 36.5643C104.435 36.5643 103.67 36.4664 102.958 36.2639C102.246 36.0614 101.639 35.7805 101.143 35.4278L101.809 33.6708C102.135 33.8929 102.482 34.0823 102.847 34.2325C103.213 34.3893 103.598 34.5069 104.003 34.5852C104.408 34.6636 104.833 34.7093 105.271 34.7093C105.963 34.7093 106.453 34.6048 106.747 34.3893C107.041 34.1803 107.184 33.9059 107.184 33.5794C107.184 33.2789 107.086 33.0503 106.89 32.8935C106.694 32.7368 106.335 32.5996 105.819 32.482L104.121 32.1359C103.187 31.9464 102.495 31.6199 102.031 31.1561C101.567 30.6924 101.339 30.0784 101.339 29.3142C101.339 28.661 101.515 28.0927 101.855 27.6159C102.201 27.1326 102.691 26.7603 103.318 26.4925C103.945 26.2247 104.683 26.0875 105.532 26.0875C106.25 26.0875 106.923 26.1855 107.55 26.388C108.177 26.5905 108.687 26.8779 109.092 27.2502L108.425 28.8961C108.033 28.5761 107.589 28.341 107.106 28.1842C106.623 28.0274 106.081 27.9491 105.486 27.9491C104.892 27.9491 104.382 28.0601 104.049 28.2822C103.716 28.5042 103.553 28.8047 103.553 29.1901C103.553 29.4775 103.651 29.7126 103.853 29.889C104.056 30.0653 104.408 30.209 104.918 30.3135L106.59 30.6466C107.544 30.8361 108.249 31.1626 108.706 31.6133C109.17 32.064 109.399 32.6649 109.399 33.4161C109.399 34.0496 109.229 34.6048 108.889 35.0751C108.55 35.5454 108.066 35.9112 107.446 36.179C106.825 36.4402 106.094 36.5774 105.244 36.5774L105.251 36.5643Z" fill="white"/>
<path d="M116.871 36.5643C115.382 36.5643 114.271 36.192 113.54 35.4539C112.808 34.7158 112.442 33.612 112.442 32.1554V26.2443H114.689V32.1685C114.689 32.985 114.866 33.6055 115.218 34.03C115.571 34.4546 116.12 34.6636 116.871 34.6636C117.622 34.6636 118.145 34.4546 118.504 34.03C118.863 33.6055 119.046 32.985 119.046 32.1685V26.2443H121.267V32.1554C121.267 33.6185 120.901 34.7158 120.163 35.4539C119.425 36.192 118.327 36.5643 116.871 36.5643Z" fill="white"/>
<path d="M17.2562 9.11825C23.3634 4.12152 27.0864 2.42328 27.0864 2.42328C27.0864 2.42328 20.6592 4.01048 18.9741 4.53954C13.3111 6.3031 9.48355 7.9948 5.87153 9.76489L5.17264 10.1045L5.93685 9.96084C10.6592 9.066 11.2928 8.53693 13.8728 8.37364C9.5554 11.953 5.38165 18.6284 3.6377 25.049C3.6377 25.049 3.78139 24.7943 3.89896 24.6245C6.7925 20.3854 11.1557 14.1085 17.2628 9.11172L17.2562 9.11825Z" fill="white"/>
<path d="M29.0264 2.05748L34.82 2.31221L34.5979 4.53952L40.8748 0C36.3418 0.457217 29.0264 2.05748 29.0264 2.05748Z" fill="white"/>
<path d="M27.4654 8.60222C25.3099 9.28152 23.2133 10.1241 21.2276 11.2084C19.8691 11.9464 18.2035 13.096 14.8985 15.9961C8.9481 21.2214 4.51309 28.87 3.37657 30.8426C3.12837 29.5493 2.5993 27.3351 2.5993 27.3351C2.5993 27.3351 2.21393 28.4259 1.24725 32.0118C0.28709 35.5977 -0.00683594 40.0065 -0.00683594 40.0065C-0.00683594 40.0065 8.69336 24.0823 20.5875 16.695C20.5549 17.2567 20.5288 17.3285 20.5288 17.8968C20.5092 20.1306 20.7051 22.3579 21.1035 24.5265L21.1885 24.9902L21.306 24.533C21.9788 21.9987 23.566 18.3605 26.8514 13.5336C28.6738 10.8557 30.4634 8.88308 31.9853 7.3808L27.4589 8.60222H27.4654Z" fill="white"/>
</svg>
